<svg width="23" height="22" viewBox="0 0 23 22" fill="none" xmlns="http://www.w3.org/2000/svg">
<path fill-rule="evenodd" clip-rule="evenodd" d="M0.941972 3.16805C0.30957 4.40921 0.30957 6.03398 0.30957 9.28352V12.7165C0.30957 15.966 0.30957 17.5908 0.941972 18.8319C1.49825 19.9237 2.38587 20.8113 3.47763 21.3676C4.71878 22 6.34355 22 9.59309 22H13.0261C16.2756 22 17.9004 22 19.1415 21.3676C20.2333 20.8113 21.1209 19.9237 21.6772 18.8319C22.3096 17.5908 22.3096 15.966 22.3096 12.7165V9.28352C22.3096 6.03398 22.3096 4.40921 21.6772 3.16805C21.1209 2.0763 20.2333 1.18868 19.1415 0.632402C17.9004 0 16.2756 0 13.0261 0H9.59309C6.34355 0 4.71878 0 3.47763 0.632402C2.38587 1.18868 1.49825 2.0763 0.941972 3.16805ZM11.3096 14.9286C13.4793 14.9286 15.2381 13.1697 15.2381 11C15.2381 8.83031 13.4793 7.07143 11.3096 7.07143C9.13988 7.07143 7.381 8.83031 7.381 11C7.381 13.1697 9.13988 14.9286 11.3096 14.9286ZM13.6667 11C13.6667 12.3018 12.6114 13.3571 11.3096 13.3571C10.0078 13.3571 8.95243 12.3018 8.95243 11C8.95243 9.69819 10.0078 8.64286 11.3096 8.64286C12.6114 8.64286 13.6667 9.69819 13.6667 11ZM3.96625 5.7169C3.45243 6.72534 3.45243 8.04547 3.45243 10.6857V11.3143C3.45243 13.9545 3.45243 15.2747 3.96625 16.2831C4.41823 17.1701 5.13942 17.8913 6.02647 18.3433C7.03491 18.8571 8.35504 18.8571 10.9953 18.8571H11.6239C14.2641 18.8571 15.5842 18.8571 16.5927 18.3433C17.4797 17.8913 18.2009 17.1701 18.6529 16.2831C19.1667 15.2747 19.1667 13.9545 19.1667 11.3143V10.6857C19.1667 8.04547 19.1667 6.72534 18.6529 5.7169C18.2009 4.82985 17.4797 4.10866 16.5927 3.65668C15.5842 3.14286 14.2641 3.14286 11.6239 3.14286H10.9953C8.35504 3.14286 7.03491 3.14286 6.02647 3.65668C5.13942 4.10866 4.41823 4.82985 3.96625 5.7169ZM10.9953 4.71429H11.6239C12.9699 4.71429 13.8849 4.71551 14.5922 4.7733C15.2812 4.82958 15.6335 4.93161 15.8793 5.05684C16.4706 5.35815 16.9514 5.83895 17.2527 6.43032C17.378 6.67609 17.48 7.02841 17.5363 7.71734C17.5941 8.42463 17.5953 9.33966 17.5953 10.6857V11.3143C17.5953 12.6603 17.5941 13.5754 17.5363 14.2827C17.48 14.9716 17.378 15.3239 17.2527 15.5697C16.9514 16.1611 16.4706 16.6418 15.8793 16.9432C15.6335 17.0684 15.2812 17.1704 14.5922 17.2267C13.8849 17.2845 12.9699 17.2857 11.6239 17.2857H10.9953C9.64923 17.2857 8.7342 17.2845 8.02692 17.2267C7.33798 17.1704 6.98566 17.0684 6.73989 16.9432C6.14852 16.6418 5.66772 16.1611 5.36641 15.5697C5.24118 15.3239 5.13915 14.9716 5.08287 14.2827C5.02508 13.5754 5.02386 12.6603 5.02386 11.3143V10.6857C5.02386 9.33966 5.02508 8.42463 5.08287 7.71734C5.13915 7.02841 5.24118 6.67609 5.36641 6.43032C5.66772 5.83895 6.14852 5.35815 6.73989 5.05684C6.98566 4.93161 7.33798 4.82958 8.02692 4.7733C8.7342 4.71551 9.64923 4.71429 10.9953 4.71429ZM16.8096 6.67857C16.8096 7.32948 16.2819 7.85714 15.631 7.85714C14.9801 7.85714 14.4524 7.32948 14.4524 6.67857C14.4524 6.02766 14.9801 5.5 15.631 5.5C16.2819 5.5 16.8096 6.02766 16.8096 6.67857Z" fill="#1740C7"/>
</svg>
