<svg width="23" height="22" viewBox="0 0 23 22" fill="none" xmlns="http://www.w3.org/2000/svg">
<path fill-rule="evenodd" clip-rule="evenodd" d="M11.3096 22C17.3847 22 22.3096 17.0751 22.3096 11C22.3096 4.92487 17.3847 0 11.3096 0C5.23444 0 0.30957 4.92487 0.30957 11C0.30957 16.4216 4.23191 20.9272 9.39374 21.8337V21.8699C9.95556 21.956 10.5303 22 11.1158 22C11.1485 22 11.1811 21.9999 11.2136 21.9996C11.2456 21.9999 11.2776 22 11.3096 22ZM11.2136 21.9996C11.7654 21.995 12.3074 21.9512 12.838 21.8699V14.3641H15.4061L15.8947 11.2594H12.838V9.24549C12.838 8.39591 13.2642 7.56727 14.6333 7.56727H16.0239V4.92406C16.0239 4.92406 14.7624 4.71429 13.5569 4.71429C11.0384 4.71429 9.39374 6.2016 9.39374 8.89306V11.2594H6.59528V14.3641H9.39374V21.8337C9.98542 21.9377 10.5934 21.9943 11.2136 21.9996Z" fill="#1740C7"/>
</svg>
