<svg width="23" height="22" viewBox="0 0 23 22" fill="none" xmlns="http://www.w3.org/2000/svg">
<path fill-rule="evenodd" clip-rule="evenodd" d="M9.59309 0H13.0261C16.2756 0 17.9004 0 19.1415 0.632402C20.2333 1.18868 21.1209 2.0763 21.6772 3.16806C22.3096 4.40921 22.3096 6.03398 22.3096 9.28352V12.7165C22.3096 15.966 22.3096 17.5908 21.6772 18.8319C21.1209 19.9237 20.2333 20.8113 19.1415 21.3676C17.9004 22 16.2756 22 13.0261 22H9.59309C6.34355 22 4.71878 22 3.47763 21.3676C2.38587 20.8113 1.49825 19.9237 0.941972 18.8319C0.30957 17.5908 0.30957 15.966 0.30957 12.7165V9.28352C0.30957 6.03398 0.30957 4.40921 0.941972 3.16806C1.49825 2.0763 2.38587 1.18868 3.47763 0.632402C4.71878 0 6.34355 0 9.59309 0ZM16.6346 12.1362C16.5421 12.3718 16.5801 12.6043 16.7493 12.8339C16.9651 13.0762 17.204 13.3226 17.4454 13.5717C18.1599 14.3088 18.8969 15.069 19.125 15.8138C19.2054 16.2784 18.8226 16.4513 18.4339 16.4513L16.3407 16.4857C16.2096 16.5143 16.0571 16.5 15.8829 16.4426C15.2795 16.2441 14.8855 15.7682 14.4881 15.2883C14.2331 14.9804 13.9767 14.6707 13.6627 14.4317C13.5062 14.3125 13.3175 14.2313 13.1354 14.3282C12.7241 14.5443 12.7137 14.9601 12.7031 15.3812C12.6951 15.6995 12.687 16.0209 12.5057 16.2614C12.2664 16.527 11.8023 16.4933 11.4235 16.4658C11.3173 16.4581 11.2179 16.4509 11.1319 16.4509C7.21519 16.5914 4.66149 10.9767 3.49453 8.07995C3.35494 7.68855 3.57504 7.49428 3.96887 7.49428L6.2094 7.47715C6.44887 7.51896 6.67615 7.66062 6.76542 7.90771C7.10091 8.72835 8.32213 11.6886 9.07946 11.6886C9.8368 11.6886 9.6473 8.67222 9.39016 8.10595C9.25386 7.91076 9.02227 7.7873 8.69514 7.73568C8.62428 7.72434 8.63797 7.65539 8.73612 7.52903C9.07947 7.08702 11.1838 6.95632 12.1051 7.1759C12.2873 7.22405 12.4653 7.30957 12.5467 7.4989C12.731 7.93084 12.6887 8.65807 12.6458 9.39434C12.5927 10.3068 12.5388 11.2331 12.9144 11.6285C13.0594 11.6664 13.1388 11.6708 13.2661 11.5682C14.2335 10.5926 14.8937 9.07458 15.4331 7.83067C15.5025 7.64781 15.6133 7.55793 15.7846 7.51624C16.0825 7.51624 16.405 7.51757 16.7374 7.51895C17.4343 7.52183 18.1751 7.5249 18.8266 7.51624C19.8343 7.51624 18.376 9.58333 17.3931 10.9766C17.0102 11.5195 16.6994 11.96 16.6346 12.1362Z" fill="#1740C7"/>
</svg>
